<mxfile host="app.diagrams.net" modified="2024-04-08T20:20:32.633Z" agent="Mozilla/5.0 (Windows NT 10.0; Win64; x64) AppleWebKit/537.36 (KHTML, like Gecko) Chrome/123.0.0.0 Safari/537.36" version="24.2.3" etag="ZyM-Ocgzq5CLURxSIYln" type="github">
  <diagram name="Page-1" id="FJjQmZRObda86ASmk3-M">
    <mxGraphModel>
      <root>
        <mxCell id="0" />
        <mxCell id="1" parent="0" />
      </root>
    </mxGraphModel>
  </diagram>
</mxfile>
